<mxfile host="app.diagrams.net" modified="2023-03-17T05:16:51.265Z" agent="5.0 (Macintosh; Intel Mac OS X 10_15_7) AppleWebKit/537.36 (KHTML, like Gecko) Chrome/110.0.0.0 Safari/537.36 Edg/110.0.1587.69" etag="Ngwv9EBvqZ7X1OHis1YU" version="21.0.6" type="github">
  <diagram name="Page-1" id="ttmaKD4819fV9ZANyHSZ">
    <mxGraphModel dx="1864" dy="1086" grid="1" gridSize="10" guides="1" tooltips="1" connect="1" arrows="1" fold="1" page="1" pageScale="1" pageWidth="850" pageHeight="1100" math="0" shadow="0">
      <root>
        <mxCell id="0" />
        <mxCell id="1" parent="0" />
        <mxCell id="lnMHFokvuU6wEjcCkfkq-71" value="" style="rounded=0;whiteSpace=wrap;html=1;" vertex="1" parent="1">
          <mxGeometry x="80" y="1200" width="700" height="150" as="geometry" />
        </mxCell>
        <mxCell id="lnMHFokvuU6wEjcCkfkq-73" style="edgeStyle=orthogonalEdgeStyle;rounded=0;orthogonalLoop=1;jettySize=auto;html=1;entryX=0.5;entryY=0;entryDx=0;entryDy=0;" edge="1" parent="1" source="lnMHFokvuU6wEjcCkfkq-30" target="lnMHFokvuU6wEjcCkfkq-71">
          <mxGeometry relative="1" as="geometry" />
        </mxCell>
        <mxCell id="lnMHFokvuU6wEjcCkfkq-30" value="" style="rounded=0;whiteSpace=wrap;html=1;" vertex="1" parent="1">
          <mxGeometry x="80" y="910" width="700" height="220" as="geometry" />
        </mxCell>
        <mxCell id="lnMHFokvuU6wEjcCkfkq-22" value="" style="rounded=0;whiteSpace=wrap;html=1;" vertex="1" parent="1">
          <mxGeometry x="90" y="580" width="700" height="140" as="geometry" />
        </mxCell>
        <mxCell id="lnMHFokvuU6wEjcCkfkq-25" style="edgeStyle=orthogonalEdgeStyle;rounded=0;orthogonalLoop=1;jettySize=auto;html=1;entryX=0.5;entryY=0;entryDx=0;entryDy=0;" edge="1" parent="1" source="lnMHFokvuU6wEjcCkfkq-8" target="lnMHFokvuU6wEjcCkfkq-22">
          <mxGeometry relative="1" as="geometry" />
        </mxCell>
        <mxCell id="lnMHFokvuU6wEjcCkfkq-8" value="" style="rounded=0;whiteSpace=wrap;html=1;" vertex="1" parent="1">
          <mxGeometry x="90" y="330" width="700" height="170" as="geometry" />
        </mxCell>
        <mxCell id="lnMHFokvuU6wEjcCkfkq-3" style="edgeStyle=orthogonalEdgeStyle;rounded=0;orthogonalLoop=1;jettySize=auto;html=1;exitX=0.5;exitY=1;exitDx=0;exitDy=0;" edge="1" parent="1" source="lnMHFokvuU6wEjcCkfkq-1">
          <mxGeometry relative="1" as="geometry">
            <mxPoint x="260" y="330" as="targetPoint" />
            <Array as="points">
              <mxPoint x="437" y="280" />
              <mxPoint x="260" y="280" />
            </Array>
          </mxGeometry>
        </mxCell>
        <mxCell id="lnMHFokvuU6wEjcCkfkq-5" style="edgeStyle=orthogonalEdgeStyle;rounded=0;orthogonalLoop=1;jettySize=auto;html=1;exitX=0.5;exitY=1;exitDx=0;exitDy=0;" edge="1" parent="1" source="lnMHFokvuU6wEjcCkfkq-1">
          <mxGeometry relative="1" as="geometry">
            <mxPoint x="437" y="330" as="targetPoint" />
          </mxGeometry>
        </mxCell>
        <mxCell id="lnMHFokvuU6wEjcCkfkq-24" style="edgeStyle=orthogonalEdgeStyle;rounded=0;orthogonalLoop=1;jettySize=auto;html=1;entryX=0.75;entryY=0;entryDx=0;entryDy=0;" edge="1" parent="1" source="lnMHFokvuU6wEjcCkfkq-1" target="lnMHFokvuU6wEjcCkfkq-8">
          <mxGeometry relative="1" as="geometry" />
        </mxCell>
        <mxCell id="lnMHFokvuU6wEjcCkfkq-1" value="Stream (SaaS)" style="rounded=0;whiteSpace=wrap;html=1;fillColor=#dae8fc;strokeColor=#6c8ebf;" vertex="1" parent="1">
          <mxGeometry x="377" y="170" width="120" height="60" as="geometry" />
        </mxCell>
        <mxCell id="lnMHFokvuU6wEjcCkfkq-2" value="BridgePoint" style="rounded=0;whiteSpace=wrap;html=1;" vertex="1" parent="1">
          <mxGeometry x="200" y="370" width="120" height="60" as="geometry" />
        </mxCell>
        <mxCell id="lnMHFokvuU6wEjcCkfkq-4" value="Payment" style="rounded=0;whiteSpace=wrap;html=1;" vertex="1" parent="1">
          <mxGeometry x="377" y="370" width="120" height="60" as="geometry" />
        </mxCell>
        <mxCell id="lnMHFokvuU6wEjcCkfkq-6" value="Fin Venture Capital" style="rounded=0;whiteSpace=wrap;html=1;" vertex="1" parent="1">
          <mxGeometry x="560" y="370" width="120" height="60" as="geometry" />
        </mxCell>
        <mxCell id="lnMHFokvuU6wEjcCkfkq-9" value="Tenant&lt;br&gt;" style="text;html=1;strokeColor=none;fillColor=none;align=center;verticalAlign=middle;whiteSpace=wrap;rounded=0;fontStyle=1" vertex="1" parent="1">
          <mxGeometry x="60" y="330" width="60" height="30" as="geometry" />
        </mxCell>
        <mxCell id="lnMHFokvuU6wEjcCkfkq-27" style="edgeStyle=orthogonalEdgeStyle;rounded=0;orthogonalLoop=1;jettySize=auto;html=1;entryX=0.5;entryY=0;entryDx=0;entryDy=0;" edge="1" parent="1" source="lnMHFokvuU6wEjcCkfkq-11" target="lnMHFokvuU6wEjcCkfkq-15">
          <mxGeometry relative="1" as="geometry" />
        </mxCell>
        <mxCell id="lnMHFokvuU6wEjcCkfkq-11" value="Portal" style="rounded=1;whiteSpace=wrap;html=1;fillColor=#dae8fc;strokeColor=#6c8ebf;" vertex="1" parent="1">
          <mxGeometry x="100" y="620" width="120" height="60" as="geometry" />
        </mxCell>
        <mxCell id="lnMHFokvuU6wEjcCkfkq-60" style="edgeStyle=orthogonalEdgeStyle;rounded=0;orthogonalLoop=1;jettySize=auto;html=1;entryX=0.116;entryY=0.002;entryDx=0;entryDy=0;entryPerimeter=0;" edge="1" parent="1" source="lnMHFokvuU6wEjcCkfkq-15" target="lnMHFokvuU6wEjcCkfkq-30">
          <mxGeometry relative="1" as="geometry" />
        </mxCell>
        <mxCell id="lnMHFokvuU6wEjcCkfkq-15" value="Facade-LP" style="rounded=0;whiteSpace=wrap;html=1;fillColor=#dae8fc;strokeColor=#6c8ebf;" vertex="1" parent="1">
          <mxGeometry x="100" y="770" width="120" height="60" as="geometry" />
        </mxCell>
        <mxCell id="lnMHFokvuU6wEjcCkfkq-29" style="edgeStyle=orthogonalEdgeStyle;rounded=0;orthogonalLoop=1;jettySize=auto;html=1;" edge="1" parent="1" source="lnMHFokvuU6wEjcCkfkq-16" target="lnMHFokvuU6wEjcCkfkq-28">
          <mxGeometry relative="1" as="geometry" />
        </mxCell>
        <mxCell id="lnMHFokvuU6wEjcCkfkq-16" value="Console" style="rounded=0;whiteSpace=wrap;html=1;" vertex="1" parent="1">
          <mxGeometry x="340" y="620" width="120" height="60" as="geometry" />
        </mxCell>
        <mxCell id="lnMHFokvuU6wEjcCkfkq-19" value="WM" style="rounded=0;whiteSpace=wrap;html=1;dashed=1;" vertex="1" parent="1">
          <mxGeometry x="570" y="620" width="120" height="60" as="geometry" />
        </mxCell>
        <mxCell id="lnMHFokvuU6wEjcCkfkq-26" value="System" style="text;html=1;strokeColor=none;fillColor=none;align=center;verticalAlign=middle;whiteSpace=wrap;rounded=0;fontStyle=1" vertex="1" parent="1">
          <mxGeometry x="90" y="580" width="60" height="30" as="geometry" />
        </mxCell>
        <mxCell id="lnMHFokvuU6wEjcCkfkq-61" style="edgeStyle=orthogonalEdgeStyle;rounded=0;orthogonalLoop=1;jettySize=auto;html=1;entryX=0.454;entryY=-0.011;entryDx=0;entryDy=0;entryPerimeter=0;" edge="1" parent="1" source="lnMHFokvuU6wEjcCkfkq-28" target="lnMHFokvuU6wEjcCkfkq-30">
          <mxGeometry relative="1" as="geometry" />
        </mxCell>
        <mxCell id="lnMHFokvuU6wEjcCkfkq-28" value="Facade-GP" style="rounded=0;whiteSpace=wrap;html=1;" vertex="1" parent="1">
          <mxGeometry x="340" y="770" width="120" height="60" as="geometry" />
        </mxCell>
        <mxCell id="lnMHFokvuU6wEjcCkfkq-50" style="edgeStyle=orthogonalEdgeStyle;rounded=0;orthogonalLoop=1;jettySize=auto;html=1;" edge="1" parent="1" source="lnMHFokvuU6wEjcCkfkq-31" target="lnMHFokvuU6wEjcCkfkq-33">
          <mxGeometry relative="1" as="geometry" />
        </mxCell>
        <mxCell id="lnMHFokvuU6wEjcCkfkq-31" value="Account" style="rounded=1;whiteSpace=wrap;html=1;fillColor=#d5e8d4;strokeColor=#82b366;" vertex="1" parent="1">
          <mxGeometry x="120" y="940" width="110" height="40" as="geometry" />
        </mxCell>
        <mxCell id="lnMHFokvuU6wEjcCkfkq-32" value="Services" style="text;html=1;strokeColor=none;fillColor=none;align=center;verticalAlign=middle;whiteSpace=wrap;rounded=0;fontStyle=1" vertex="1" parent="1">
          <mxGeometry x="80" y="910" width="60" height="30" as="geometry" />
        </mxCell>
        <mxCell id="lnMHFokvuU6wEjcCkfkq-51" style="edgeStyle=orthogonalEdgeStyle;rounded=0;orthogonalLoop=1;jettySize=auto;html=1;" edge="1" parent="1" source="lnMHFokvuU6wEjcCkfkq-33" target="lnMHFokvuU6wEjcCkfkq-34">
          <mxGeometry relative="1" as="geometry" />
        </mxCell>
        <mxCell id="lnMHFokvuU6wEjcCkfkq-57" style="edgeStyle=orthogonalEdgeStyle;rounded=0;orthogonalLoop=1;jettySize=auto;html=1;" edge="1" parent="1" source="lnMHFokvuU6wEjcCkfkq-33" target="lnMHFokvuU6wEjcCkfkq-38">
          <mxGeometry relative="1" as="geometry" />
        </mxCell>
        <mxCell id="lnMHFokvuU6wEjcCkfkq-33" value="Product" style="rounded=1;whiteSpace=wrap;html=1;fillColor=#d5e8d4;strokeColor=#82b366;" vertex="1" parent="1">
          <mxGeometry x="260" y="940" width="110" height="40" as="geometry" />
        </mxCell>
        <mxCell id="lnMHFokvuU6wEjcCkfkq-52" style="edgeStyle=orthogonalEdgeStyle;rounded=0;orthogonalLoop=1;jettySize=auto;html=1;" edge="1" parent="1" source="lnMHFokvuU6wEjcCkfkq-34" target="lnMHFokvuU6wEjcCkfkq-35">
          <mxGeometry relative="1" as="geometry" />
        </mxCell>
        <mxCell id="lnMHFokvuU6wEjcCkfkq-34" value="Drive" style="rounded=1;whiteSpace=wrap;html=1;fillColor=#d5e8d4;strokeColor=#82b366;" vertex="1" parent="1">
          <mxGeometry x="402" y="940" width="110" height="40" as="geometry" />
        </mxCell>
        <mxCell id="lnMHFokvuU6wEjcCkfkq-53" style="edgeStyle=orthogonalEdgeStyle;rounded=0;orthogonalLoop=1;jettySize=auto;html=1;entryX=0.5;entryY=0;entryDx=0;entryDy=0;" edge="1" parent="1" source="lnMHFokvuU6wEjcCkfkq-35" target="lnMHFokvuU6wEjcCkfkq-36">
          <mxGeometry relative="1" as="geometry" />
        </mxCell>
        <mxCell id="lnMHFokvuU6wEjcCkfkq-35" value="Contract" style="rounded=1;whiteSpace=wrap;html=1;fillColor=#d5e8d4;strokeColor=#82b366;" vertex="1" parent="1">
          <mxGeometry x="550" y="940" width="110" height="40" as="geometry" />
        </mxCell>
        <mxCell id="lnMHFokvuU6wEjcCkfkq-54" style="edgeStyle=orthogonalEdgeStyle;rounded=0;orthogonalLoop=1;jettySize=auto;html=1;entryX=1;entryY=0.5;entryDx=0;entryDy=0;" edge="1" parent="1" source="lnMHFokvuU6wEjcCkfkq-36" target="lnMHFokvuU6wEjcCkfkq-39">
          <mxGeometry relative="1" as="geometry" />
        </mxCell>
        <mxCell id="lnMHFokvuU6wEjcCkfkq-36" value="Job" style="rounded=1;whiteSpace=wrap;html=1;fillColor=#d5e8d4;strokeColor=#82b366;" vertex="1" parent="1">
          <mxGeometry x="550" y="1055" width="110" height="40" as="geometry" />
        </mxCell>
        <mxCell id="lnMHFokvuU6wEjcCkfkq-48" style="edgeStyle=orthogonalEdgeStyle;rounded=0;orthogonalLoop=1;jettySize=auto;html=1;" edge="1" parent="1" source="lnMHFokvuU6wEjcCkfkq-37" target="lnMHFokvuU6wEjcCkfkq-31">
          <mxGeometry relative="1" as="geometry" />
        </mxCell>
        <mxCell id="lnMHFokvuU6wEjcCkfkq-37" value="Questionnaire" style="rounded=1;whiteSpace=wrap;html=1;fillColor=#d5e8d4;strokeColor=#82b366;" vertex="1" parent="1">
          <mxGeometry x="120" y="1055" width="110" height="40" as="geometry" />
        </mxCell>
        <mxCell id="lnMHFokvuU6wEjcCkfkq-56" style="edgeStyle=orthogonalEdgeStyle;rounded=0;orthogonalLoop=1;jettySize=auto;html=1;" edge="1" parent="1" source="lnMHFokvuU6wEjcCkfkq-38" target="lnMHFokvuU6wEjcCkfkq-37">
          <mxGeometry relative="1" as="geometry" />
        </mxCell>
        <mxCell id="lnMHFokvuU6wEjcCkfkq-38" value="Setting" style="rounded=1;whiteSpace=wrap;html=1;fillColor=#d5e8d4;strokeColor=#82b366;" vertex="1" parent="1">
          <mxGeometry x="260" y="1055" width="110" height="40" as="geometry" />
        </mxCell>
        <mxCell id="lnMHFokvuU6wEjcCkfkq-55" style="edgeStyle=orthogonalEdgeStyle;rounded=0;orthogonalLoop=1;jettySize=auto;html=1;" edge="1" parent="1" source="lnMHFokvuU6wEjcCkfkq-39" target="lnMHFokvuU6wEjcCkfkq-38">
          <mxGeometry relative="1" as="geometry" />
        </mxCell>
        <mxCell id="lnMHFokvuU6wEjcCkfkq-58" style="edgeStyle=orthogonalEdgeStyle;rounded=0;orthogonalLoop=1;jettySize=auto;html=1;" edge="1" parent="1" source="lnMHFokvuU6wEjcCkfkq-39" target="lnMHFokvuU6wEjcCkfkq-34">
          <mxGeometry relative="1" as="geometry" />
        </mxCell>
        <mxCell id="lnMHFokvuU6wEjcCkfkq-39" value="Feature" style="rounded=1;whiteSpace=wrap;html=1;fillColor=#d5e8d4;strokeColor=#82b366;" vertex="1" parent="1">
          <mxGeometry x="402" y="1055" width="110" height="40" as="geometry" />
        </mxCell>
        <mxCell id="lnMHFokvuU6wEjcCkfkq-59" value="Interdependence" style="text;html=1;strokeColor=none;fillColor=none;align=center;verticalAlign=middle;whiteSpace=wrap;rounded=0;fontColor=#B3B3B3;fontSize=21;" vertex="1" parent="1">
          <mxGeometry x="380" y="1000" width="60" height="30" as="geometry" />
        </mxCell>
        <mxCell id="lnMHFokvuU6wEjcCkfkq-62" value="" style="shape=cylinder3;whiteSpace=wrap;html=1;boundedLbl=1;backgroundOutline=1;size=15;" vertex="1" parent="1">
          <mxGeometry x="150" y="1230" width="60" height="80" as="geometry" />
        </mxCell>
        <mxCell id="lnMHFokvuU6wEjcCkfkq-65" value="" style="shape=cylinder3;whiteSpace=wrap;html=1;boundedLbl=1;backgroundOutline=1;size=15;" vertex="1" parent="1">
          <mxGeometry x="270" y="1230" width="60" height="80" as="geometry" />
        </mxCell>
        <mxCell id="lnMHFokvuU6wEjcCkfkq-66" value="" style="shape=cylinder3;whiteSpace=wrap;html=1;boundedLbl=1;backgroundOutline=1;size=15;" vertex="1" parent="1">
          <mxGeometry x="660" y="1230" width="60" height="80" as="geometry" />
        </mxCell>
        <mxCell id="lnMHFokvuU6wEjcCkfkq-67" value="" style="shape=cylinder3;whiteSpace=wrap;html=1;boundedLbl=1;backgroundOutline=1;size=15;" vertex="1" parent="1">
          <mxGeometry x="410" y="1230" width="60" height="80" as="geometry" />
        </mxCell>
        <mxCell id="lnMHFokvuU6wEjcCkfkq-68" value="" style="shape=cylinder3;whiteSpace=wrap;html=1;boundedLbl=1;backgroundOutline=1;size=15;" vertex="1" parent="1">
          <mxGeometry x="540" y="1230" width="60" height="80" as="geometry" />
        </mxCell>
        <mxCell id="lnMHFokvuU6wEjcCkfkq-72" value="Database" style="text;html=1;strokeColor=none;fillColor=none;align=center;verticalAlign=middle;whiteSpace=wrap;rounded=0;fontStyle=1" vertex="1" parent="1">
          <mxGeometry x="80" y="1200" width="60" height="30" as="geometry" />
        </mxCell>
      </root>
    </mxGraphModel>
  </diagram>
</mxfile>
